<?xml version="1.0" encoding="UTF-8" standalone="no"?>
<!DOCTYPE svg PUBLIC "-//W3C//DTD SVG 1.1//EN"
 "http://www.w3.org/Graphics/SVG/1.1/DTD/svg11.dtd">
<!-- Generated by graphviz version 5.0.0 (20220707.1540)
 -->
<!-- Title: dependencies Pages: 1 -->
<svg width="942pt" height="174pt"
 viewBox="0.00 0.00 942.00 173.80" xmlns="http://www.w3.org/2000/svg" xmlns:xlink="http://www.w3.org/1999/xlink">
<g id="graph0" class="graph" transform="scale(1 1) rotate(0) translate(4 169.8)">
<title>dependencies</title>
<polygon fill="white" stroke="transparent" points="-4,4 -4,-169.8 938,-169.8 938,4 -4,4"/>
<text text-anchor="middle" x="467" y="-8.2" font-family="sans-serif" font-size="14.00">dependencies</text>
<g id="clust1" class="cluster">
<title>cluster_FoodlistModule</title>
<polygon fill="none" stroke="black" stroke-dasharray="1,5" points="8,-32.8 8,-157.8 926,-157.8 926,-32.8 8,-32.8"/>
</g>
<g id="clust8" class="cluster">
<title>cluster_FoodlistModule_imports</title>
<polygon fill="none" stroke="black" points="752,-40.8 752,-92.8 918,-92.8 918,-40.8 752,-40.8"/>
</g>
<g id="clust2" class="cluster">
<title>cluster_FoodlistModule_declarations</title>
<polygon fill="none" stroke="black" points="16,-40.8 16,-92.8 744,-92.8 744,-40.8 16,-40.8"/>
</g>
<!-- FooditemsComponent -->
<g id="node1" class="node">
<title>FooditemsComponent</title>
<polygon fill="#ffffb3" stroke="black" points="736.45,-84.8 595.55,-84.8 595.55,-48.8 736.45,-48.8 736.45,-84.8"/>
<text text-anchor="middle" x="666" y="-62.6" font-family="Times,serif" font-size="14.00">FooditemsComponent</text>
</g>
<!-- FoodlistModule -->
<g id="node6" class="node">
<title>FoodlistModule</title>
<polygon fill="#8dd3c7" stroke="black" points="469.96,-149.8 466.96,-153.8 445.96,-153.8 442.96,-149.8 364.04,-149.8 364.04,-113.8 469.96,-113.8 469.96,-149.8"/>
<text text-anchor="middle" x="417" y="-127.6" font-family="Times,serif" font-size="14.00">FoodlistModule</text>
</g>
<!-- FooditemsComponent&#45;&gt;FoodlistModule -->
<g id="edge1" class="edge">
<title>FooditemsComponent&#45;&gt;FoodlistModule</title>
<path fill="none" stroke="black" d="M666,-84.82C666,-102.17 666,-125.8 666,-125.8 666,-125.8 479.81,-125.8 479.81,-125.8"/>
<polygon fill="black" stroke="black" points="479.81,-122.3 469.81,-125.8 479.81,-129.3 479.81,-122.3"/>
</g>
<!-- FoodlistdetailsComponent -->
<g id="node2" class="node">
<title>FoodlistdetailsComponent</title>
<polygon fill="#ffffb3" stroke="black" points="577.78,-84.8 414.22,-84.8 414.22,-48.8 577.78,-48.8 577.78,-84.8"/>
<text text-anchor="middle" x="496" y="-62.6" font-family="Times,serif" font-size="14.00">FoodlistdetailsComponent</text>
</g>
<!-- FoodlistdetailsComponent&#45;&gt;FoodlistModule -->
<g id="edge2" class="edge">
<title>FoodlistdetailsComponent&#45;&gt;FoodlistModule</title>
<path fill="none" stroke="black" d="M441.92,-84.91C441.92,-84.91 441.92,-103.79 441.92,-103.79"/>
<polygon fill="black" stroke="black" points="438.42,-103.79 441.92,-113.79 445.42,-103.79 438.42,-103.79"/>
</g>
<!-- OffersComponent -->
<g id="node3" class="node">
<title>OffersComponent</title>
<polygon fill="#ffffb3" stroke="black" points="396.59,-84.8 279.41,-84.8 279.41,-48.8 396.59,-48.8 396.59,-84.8"/>
<text text-anchor="middle" x="338" y="-62.6" font-family="Times,serif" font-size="14.00">OffersComponent</text>
</g>
<!-- OffersComponent&#45;&gt;FoodlistModule -->
<g id="edge3" class="edge">
<title>OffersComponent&#45;&gt;FoodlistModule</title>
<path fill="none" stroke="black" d="M380.41,-84.91C380.41,-84.91 380.41,-103.79 380.41,-103.79"/>
<polygon fill="black" stroke="black" points="376.91,-103.79 380.41,-113.79 383.91,-103.79 376.91,-103.79"/>
</g>
<!-- PricePipe -->
<g id="node4" class="node">
<title>PricePipe</title>
<polygon fill="#ffffb3" stroke="black" points="261.66,-84.8 192.34,-84.8 192.34,-48.8 261.66,-48.8 261.66,-84.8"/>
<text text-anchor="middle" x="227" y="-62.6" font-family="Times,serif" font-size="14.00">PricePipe</text>
</g>
<!-- PricePipe&#45;&gt;FoodlistModule -->
<g id="edge4" class="edge">
<title>PricePipe&#45;&gt;FoodlistModule</title>
<path fill="none" stroke="black" d="M227,-84.82C227,-102.17 227,-125.8 227,-125.8 227,-125.8 354.07,-125.8 354.07,-125.8"/>
<polygon fill="black" stroke="black" points="354.07,-129.3 364.07,-125.8 354.07,-122.3 354.07,-129.3"/>
</g>
<!-- ShowdetailsComponent -->
<g id="node5" class="node">
<title>ShowdetailsComponent</title>
<polygon fill="#ffffb3" stroke="black" points="173.77,-84.8 24.23,-84.8 24.23,-48.8 173.77,-48.8 173.77,-84.8"/>
<text text-anchor="middle" x="99" y="-62.6" font-family="Times,serif" font-size="14.00">ShowdetailsComponent</text>
</g>
<!-- ShowdetailsComponent&#45;&gt;FoodlistModule -->
<g id="edge5" class="edge">
<title>ShowdetailsComponent&#45;&gt;FoodlistModule</title>
<path fill="none" stroke="black" d="M99,-85.08C99,-106.12 99,-137.8 99,-137.8 99,-137.8 354.13,-137.8 354.13,-137.8"/>
<polygon fill="black" stroke="black" points="354.13,-141.3 364.13,-137.8 354.13,-134.3 354.13,-141.3"/>
</g>
<!-- FoodlistRoutingModule -->
<g id="node7" class="node">
<title>FoodlistRoutingModule</title>
<polygon fill="#8dd3c7" stroke="black" points="910.07,-84.8 907.07,-88.8 886.07,-88.8 883.07,-84.8 759.93,-84.8 759.93,-48.8 910.07,-48.8 910.07,-84.8"/>
<text text-anchor="middle" x="835" y="-62.6" font-family="Times,serif" font-size="14.00">FoodlistRoutingModule</text>
</g>
<!-- FoodlistRoutingModule&#45;&gt;FoodlistModule -->
<g id="edge6" class="edge">
<title>FoodlistRoutingModule&#45;&gt;FoodlistModule</title>
<path fill="none" stroke="black" d="M835,-85.08C835,-106.12 835,-137.8 835,-137.8 835,-137.8 479.94,-137.8 479.94,-137.8"/>
<polygon fill="black" stroke="black" points="479.94,-134.3 469.94,-137.8 479.94,-141.3 479.94,-134.3"/>
</g>
</g>
</svg>
