<?xml version="1.0" encoding="UTF-8" standalone="no"?>
<!DOCTYPE svg PUBLIC "-//W3C//DTD SVG 1.1//EN"
 "http://www.w3.org/Graphics/SVG/1.1/DTD/svg11.dtd">
<!-- Generated by graphviz version 5.0.0 (20220707.1540)
 -->
<!-- Title: dependencies Pages: 1 -->
<svg width="384pt" height="174pt"
 viewBox="0.00 0.00 384.00 173.80" xmlns="http://www.w3.org/2000/svg" xmlns:xlink="http://www.w3.org/1999/xlink">
<g id="graph0" class="graph" transform="scale(1 1) rotate(0) translate(4 169.8)">
<title>dependencies</title>
<polygon fill="white" stroke="transparent" points="-4,4 -4,-169.8 380,-169.8 380,4 -4,4"/>
<text text-anchor="middle" x="188" y="-8.2" font-family="sans-serif" font-size="14.00">dependencies</text>
<g id="clust1" class="cluster">
<title>cluster_UniversityModule</title>
<polygon fill="none" stroke="black" stroke-dasharray="1,5" points="8,-32.8 8,-157.8 368,-157.8 368,-32.8 8,-32.8"/>
</g>
<g id="clust2" class="cluster">
<title>cluster_UniversityModule_declarations</title>
<polygon fill="none" stroke="black" points="204,-40.8 204,-92.8 360,-92.8 360,-40.8 204,-40.8"/>
</g>
<g id="clust4" class="cluster">
<title>cluster_UniversityModule_imports</title>
<polygon fill="none" stroke="black" points="16,-40.8 16,-92.8 196,-92.8 196,-40.8 16,-40.8"/>
</g>
<!-- UniversityComponent -->
<g id="node1" class="node">
<title>UniversityComponent</title>
<polygon fill="#ffffb3" stroke="black" points="352.44,-84.8 211.56,-84.8 211.56,-48.8 352.44,-48.8 352.44,-84.8"/>
<text text-anchor="middle" x="282" y="-62.6" font-family="Times,serif" font-size="14.00">UniversityComponent</text>
</g>
<!-- UniversityModule -->
<g id="node2" class="node">
<title>UniversityModule</title>
<polygon fill="#8dd3c7" stroke="black" points="253.16,-149.8 250.16,-153.8 229.16,-153.8 226.16,-149.8 134.84,-149.8 134.84,-113.8 253.16,-113.8 253.16,-149.8"/>
<text text-anchor="middle" x="194" y="-127.6" font-family="Times,serif" font-size="14.00">UniversityModule</text>
</g>
<!-- UniversityComponent&#45;&gt;UniversityModule -->
<g id="edge1" class="edge">
<title>UniversityComponent&#45;&gt;UniversityModule</title>
<path fill="none" stroke="black" d="M232.56,-84.91C232.56,-84.91 232.56,-103.79 232.56,-103.79"/>
<polygon fill="black" stroke="black" points="229.06,-103.79 232.56,-113.79 236.06,-103.79 229.06,-103.79"/>
</g>
<!-- UniversityRoutingModule -->
<g id="node3" class="node">
<title>UniversityRoutingModule</title>
<polygon fill="#8dd3c7" stroke="black" points="187.77,-84.8 184.77,-88.8 163.77,-88.8 160.77,-84.8 24.23,-84.8 24.23,-48.8 187.77,-48.8 187.77,-84.8"/>
<text text-anchor="middle" x="106" y="-62.6" font-family="Times,serif" font-size="14.00">UniversityRoutingModule</text>
</g>
<!-- UniversityRoutingModule&#45;&gt;UniversityModule -->
<g id="edge2" class="edge">
<title>UniversityRoutingModule&#45;&gt;UniversityModule</title>
<path fill="none" stroke="black" d="M161.28,-84.91C161.28,-84.91 161.28,-103.79 161.28,-103.79"/>
<polygon fill="black" stroke="black" points="157.78,-103.79 161.28,-113.79 164.78,-103.79 157.78,-103.79"/>
</g>
</g>
</svg>
