<?xml version="1.0" encoding="UTF-8" standalone="no"?>
<!DOCTYPE svg PUBLIC "-//W3C//DTD SVG 1.1//EN"
 "http://www.w3.org/Graphics/SVG/1.1/DTD/svg11.dtd">
<!-- Generated by graphviz version 5.0.0 (20220707.1540)
 -->
<!-- Title: dependencies Pages: 1 -->
<svg width="336pt" height="174pt"
 viewBox="0.00 0.00 336.00 173.80" xmlns="http://www.w3.org/2000/svg" xmlns:xlink="http://www.w3.org/1999/xlink">
<g id="graph0" class="graph" transform="scale(1 1) rotate(0) translate(4 169.8)">
<title>dependencies</title>
<polygon fill="white" stroke="transparent" points="-4,4 -4,-169.8 332,-169.8 332,4 -4,4"/>
<text text-anchor="middle" x="164" y="-8.2" font-family="sans-serif" font-size="14.00">dependencies</text>
<g id="clust1" class="cluster">
<title>cluster_PaymentModule</title>
<polygon fill="none" stroke="black" stroke-dasharray="1,5" points="8,-32.8 8,-157.8 320,-157.8 320,-32.8 8,-32.8"/>
</g>
<g id="clust2" class="cluster">
<title>cluster_PaymentModule_declarations</title>
<polygon fill="none" stroke="black" points="194,-40.8 194,-92.8 312,-92.8 312,-40.8 194,-40.8"/>
</g>
<g id="clust4" class="cluster">
<title>cluster_PaymentModule_imports</title>
<polygon fill="none" stroke="black" points="16,-40.8 16,-92.8 186,-92.8 186,-40.8 16,-40.8"/>
</g>
<!-- PayComponent -->
<g id="node1" class="node">
<title>PayComponent</title>
<polygon fill="#ffffb3" stroke="black" points="304.33,-84.8 201.67,-84.8 201.67,-48.8 304.33,-48.8 304.33,-84.8"/>
<text text-anchor="middle" x="253" y="-62.6" font-family="Times,serif" font-size="14.00">PayComponent</text>
</g>
<!-- PaymentModule -->
<g id="node2" class="node">
<title>PaymentModule</title>
<polygon fill="#8dd3c7" stroke="black" points="231.05,-149.8 228.05,-153.8 207.05,-153.8 204.05,-149.8 122.95,-149.8 122.95,-113.8 231.05,-113.8 231.05,-149.8"/>
<text text-anchor="middle" x="177" y="-127.6" font-family="Times,serif" font-size="14.00">PaymentModule</text>
</g>
<!-- PayComponent&#45;&gt;PaymentModule -->
<g id="edge1" class="edge">
<title>PayComponent&#45;&gt;PaymentModule</title>
<path fill="none" stroke="black" d="M216.55,-84.91C216.55,-84.91 216.55,-103.79 216.55,-103.79"/>
<polygon fill="black" stroke="black" points="213.05,-103.79 216.55,-113.79 220.05,-103.79 213.05,-103.79"/>
</g>
<!-- PaymentRoutingModule -->
<g id="node3" class="node">
<title>PaymentRoutingModule</title>
<polygon fill="#8dd3c7" stroke="black" points="177.66,-84.8 174.66,-88.8 153.66,-88.8 150.66,-84.8 24.34,-84.8 24.34,-48.8 177.66,-48.8 177.66,-84.8"/>
<text text-anchor="middle" x="101" y="-62.6" font-family="Times,serif" font-size="14.00">PaymentRoutingModule</text>
</g>
<!-- PaymentRoutingModule&#45;&gt;PaymentModule -->
<g id="edge2" class="edge">
<title>PaymentRoutingModule&#45;&gt;PaymentModule</title>
<path fill="none" stroke="black" d="M150.28,-84.91C150.28,-84.91 150.28,-103.79 150.28,-103.79"/>
<polygon fill="black" stroke="black" points="146.78,-103.79 150.28,-113.79 153.78,-103.79 146.78,-103.79"/>
</g>
</g>
</svg>
